PathFileType	4	(X/Y/Z)	S1_nor_fast_right.trc
DataRate	CameraRate	NumFrames	NumMarkers	Units	OrigDataRate	OrigDataStartFrame	OrigNumFrames
250.00	250.00	7	18	mm	250.00	2447	6523
Frame#	Time	c7	r_should	l_should	clavicle	r_upa	r_elb_l	r_elb_m	r_low	r_wri_l	r_wri_m	r_met	l_upa	l_elb_l	l_elb_m	l_low	l_wri_l	l_wri_m	l_met
	X1	Y1	Z1	X2	Y2	Z2	X3	Y3	Z3	X4	Y4	Z4	X5	Y5	Z5	X6	Y6	Z6	X7	Y7	Z7	X8	Y8	Z8	X9	Y9	Z9	X10	Y10	Z10	X11	Y11	Z11	X12	Y12	Z12	X13	Y13	Z13	X14	Y14	Z14	X15	Y15	Z15	X16	Y16	Z16	X17	Y17	Z17	X18	Y18	Z18
2447	9.78400	945.97089	1417.40369	172.63850	1028.54309	1343.54797	340.42889	988.62219	1370.85376	-28.89196	1091.24353	1308.10107	140.91151	979.25824	1142.32263	390.47675	984.20349	1075.69934	397.60010	944.96222	1032.65112	316.58328	1065.51147	988.36481	362.12115	1168.11096	1024.10815	369.09937	nan	nan	nan	1247.50745	991.08453	373.56604	989.60028	1147.80420	-73.34212	997.03851	1062.89917	-87.40588	934.35114	1038.53894	-7.51658	951.12549	920.48633	-98.45133	1026.16809	830.41083	-86.84620	954.36414	819.62842	-93.68559	1040.91553	751.74884	-109.76723
2448	9.78800	946.09735	1417.40564	172.62584	1028.73425	1343.53162	340.39606	988.69794	1370.84583	-28.90752	1091.34558	1308.08643	140.86578	979.57587	1142.37878	390.55978	984.62750	1075.34229	397.67093	945.14673	1032.52966	316.72733	1064.87390	987.56244	362.75735	1168.36328	1022.00653	369.33954	nan	nan	nan	1247.33398	987.92877	373.93307	989.63165	1147.79016	-73.34369	997.05060	1062.88318	-87.40578	934.37836	1038.54199	-7.50294	951.09656	920.48706	-98.44548	1026.31348	830.42981	-86.91741	954.30981	819.63684	-93.68105	1040.84229	751.71661	-109.79133
2449	9.79200	946.22333	1417.41443	172.60036	1028.93164	1343.52368	340.36810	988.76953	1370.84558	-28.92257	1091.44165	1308.06470	140.81731	979.96844	1142.60510	390.65604	985.07721	1074.95361	397.74008	945.36542	1032.41016	316.88007	1064.67957	986.45984	363.02325	1168.59778	1019.88983	369.57877	nan	nan	nan	1247.13635	984.82129	374.23419	989.66150	1147.77881	-73.34174	997.06818	1062.87463	-87.40715	934.40320	1038.54553	-7.49467	951.07330	920.49036	-98.43980	1026.44055	830.32800	-86.90131	954.25677	819.64819	-93.67722	1040.76233	751.69348	-109.82388
2450	9.79600	946.35413	1417.41943	172.60092	1029.14172	1343.51575	340.34006	988.83435	1370.84448	-28.93862	1091.54297	1308.04858	140.76379	980.32092	1142.63147	390.70200	985.55353	1074.55164	397.79761	945.60760	1032.29578	317.07108	1064.55273	985.28528	363.22473	1168.84631	1017.76074	369.80634	nan	nan	nan	1247.04358	981.63226	374.60782	989.68774	1147.77173	-73.34499	997.08197	1062.86975	-87.40941	934.43408	1038.54871	-7.48598	951.05249	920.49237	-98.43337	1026.52405	830.19348	-86.85438	954.21344	819.64581	-93.66541	1040.68579	751.67249	-109.85719
2451	9.80000	946.48645	1417.42554	172.59412	1029.37097	1343.49829	340.30914	988.89410	1370.83691	-28.95520	1091.65771	1308.02942	140.72174	980.69348	1142.61292	390.74039	986.05035	1074.15015	397.85718	945.85150	1032.18762	317.27130	1064.48340	984.07330	363.39920	1169.07556	1015.48395	370.00601	nan	nan	nan	1246.96765	978.43365	374.98203	989.71539	1147.76331	-73.35107	997.08801	1062.85632	-87.41834	934.46167	1038.55029	-7.47632	951.02478	920.49817	-98.42987	1026.54102	830.10297	-86.82489	954.16724	819.64325	-93.66070	1040.60828	751.64709	-109.89491
2452	9.80400	946.62268	1417.42603	172.58208	1029.61035	1343.47778	340.27585	988.94843	1370.82690	-28.96905	1091.76672	1308.01135	140.67703	981.10059	1142.58594	390.78415	986.54761	1073.76233	397.93765	946.12439	1032.05481	317.49243	1064.37439	982.91040	363.62048	1169.22913	1013.03290	370.20105	nan	nan	nan	1246.85156	975.19293	375.33755	989.73688	1147.75134	-73.35798	997.08606	1062.84045	-87.43402	934.49615	1038.54541	-7.46133	951.00061	920.49792	-98.42910	1026.52576	830.04272	-86.81607	954.11511	819.64050	-93.65209	1040.53345	751.61469	-109.94560
2453	9.80800	946.75842	1417.41895	172.59129	1029.85620	1343.45020	340.24100	988.99921	1370.81860	-28.98340	1091.87427	1307.99060	140.62532	981.52393	1142.52966	390.80719	987.03912	1073.36401	398.02148	946.41193	1031.90027	317.71683	1064.30908	981.69647	363.83777	1169.39636	1010.68341	370.44568	nan	nan	nan	1246.74731	971.93658	375.63815	989.74957	1147.73816	-73.36632	997.08997	1062.82483	-87.44314	934.52576	1038.54846	-7.45430	950.97748	920.49420	-98.42607	1026.50281	829.99683	-86.82475	954.06219	819.64050	-93.64362	1040.45129	751.58948	-109.99083
